<?xml version="1.0" encoding="iso-8859-1"?>
<!-- Generator: Adobe Illustrator 19.0.0, SVG Export Plug-In . SVG Version: 6.00 Build 0)  -->
<svg version="1.1" id="Capa_1" xmlns="http://www.w3.org/2000/svg" xmlns:xlink="http://www.w3.org/1999/xlink" x="0px" y="0px"
	 viewBox="0 0 512 512" style="enable-background:new 0 0 512 512;" xml:space="preserve">
<g>
	<g>
		<path d="M362.667,32H64C28.668,32.035,0.035,60.668,0,96v245.333c0.035,35.332,28.668,63.965,64,64h298.667
			c35.332-0.035,63.965-28.668,64-64V96C426.631,60.668,397.998,32.035,362.667,32z M405.333,341.333
			c0,23.564-19.103,42.667-42.667,42.667H64c-23.564,0-42.667-19.102-42.667-42.667V96c0-23.564,19.103-42.667,42.667-42.667
			h298.667c23.564,0,42.667,19.103,42.667,42.667V341.333z"/>
	</g>
</g>
<g>
	<g>
		<rect x="10.667" y="96" width="405.333" height="21.333"/>
	</g>
</g>
<g>
	<g>
		<rect x="53.333" y="64" width="53.333" height="21.333"/>
	</g>
</g>
<g>
	<g>
		<rect x="128" y="64" width="21.333" height="21.333"/>
	</g>
</g>
<g>
	<g>
		<rect x="170.667" y="64" width="21.333" height="21.333"/>
	</g>
</g>
<g>
	<g>
		<path d="M448,85.333h-10.667v21.333H448c23.564,0,42.667,19.102,42.667,42.667V416c0,23.564-19.102,42.667-42.667,42.667H149.333
			c-23.564,0-42.667-19.102-42.667-42.667H85.333c0.035,35.332,28.668,63.965,64,64H448c35.332-0.035,63.965-28.668,64-64V149.333
			C511.965,114.002,483.332,85.369,448,85.333z"/>
	</g>
</g>
<g>
	<g>
		<rect x="437.333" y="149.333" width="64" height="21.333"/>
	</g>
</g>
<g>
	<g>
		<path d="M102.4,157.867L89.6,140.8l-42.667,32c-0.809,0.606-1.527,1.325-2.133,2.133c-3.535,4.713-2.579,11.399,2.133,14.933
			l42.667,32l12.8-17.067l-31.285-23.467L102.4,157.867z"/>
	</g>
</g>
<g>
	<g>
		<path d="M177.067,172.8l-42.667-32l-12.8,17.067l31.285,23.467L121.6,204.8l12.8,17.067l42.667-32
			c0.809-0.606,1.527-1.325,2.133-2.133C182.735,183.02,181.779,176.335,177.067,172.8z"/>
	</g>
</g>
<g>
	<g>
		<path d="M305.067,253.867l-12.8-17.067l-42.667,32c-0.809,0.606-1.527,1.325-2.133,2.133c-3.535,4.713-2.58,11.399,2.133,14.933
			l42.667,32l12.8-17.067l-31.285-23.467L305.067,253.867z"/>
	</g>
</g>
<g>
	<g>
		<path d="M379.733,268.8l-42.667-32l-12.8,17.067l31.285,23.467L324.267,300.8l12.8,17.067l42.667-32
			c0.809-0.606,1.527-1.325,2.133-2.133C385.401,279.02,384.446,272.335,379.733,268.8z"/>
	</g>
</g>
<g>
	<g>
		<rect x="202.667" y="149.333" width="64" height="21.333"/>
	</g>
</g>
<g>
	<g>
		<rect x="288" y="149.333" width="21.333" height="21.333"/>
	</g>
</g>
<g>
	<g>
		<rect x="330.667" y="149.333" width="21.333" height="21.333"/>
	</g>
</g>
<g>
	<g>
		<rect x="288" y="192" width="64" height="21.333"/>
	</g>
</g>
<g>
	<g>
		<rect x="245.333" y="192" width="21.333" height="21.333"/>
	</g>
</g>
<g>
	<g>
		<rect x="202.667" y="192" width="21.333" height="21.333"/>
	</g>
</g>
<g>
	<g>
		<rect x="74.667" y="245.333" width="64" height="21.333"/>
	</g>
</g>
<g>
	<g>
		<rect x="160" y="245.333" width="21.333" height="21.333"/>
	</g>
</g>
<g>
	<g>
		<rect x="202.667" y="245.333" width="21.333" height="21.333"/>
	</g>
</g>
<g>
	<g>
		<rect x="160" y="288" width="64" height="21.333"/>
	</g>
</g>
<g>
	<g>
		<rect x="117.333" y="288" width="21.333" height="21.333"/>
	</g>
</g>
<g>
	<g>
		<rect x="74.667" y="288" width="21.333" height="21.333"/>
	</g>
</g>
<g>
	<g>
		<rect x="74.667" y="330.667" width="266.667" height="21.333"/>
	</g>
</g>
<g>
	<g>
		<rect x="448" y="202.667" width="21.333" height="21.333"/>
	</g>
</g>
<g>
	<g>
		<rect x="448" y="245.333" width="21.333" height="21.333"/>
	</g>
</g>
<g>
	<g>
		<rect x="448" y="288" width="21.333" height="21.333"/>
	</g>
</g>
<g>
</g>
<g>
</g>
<g>
</g>
<g>
</g>
<g>
</g>
<g>
</g>
<g>
</g>
<g>
</g>
<g>
</g>
<g>
</g>
<g>
</g>
<g>
</g>
<g>
</g>
<g>
</g>
<g>
</g>
</svg>
